HIERARCHY
ROOT ui
{
	 OFFSET 0 0 0
	 CHANNELS 3 XPosition YPosition Z Position
	 EndSite
	 {
	 OFFSET 0 -1 0
	 }
}
ROOT li
{
	 OFFSET 0 0 0
	 CHANNELS 3 XPosition YPosition Z Position
	 EndSite
	 {
	 OFFSET 0 -1 0
	 }
}
ROOT ul
{
	 OFFSET 0 0 0
	 CHANNELS 3 XPosition YPosition Z Position
	 EndSite
	 {
	 OFFSET 0 -1 0
	 }
}
ROOT ll
{
	 OFFSET 0 0 0
	 CHANNELS 3 XPosition YPosition Z Position
	 EndSite
	 {
	 OFFSET 0 -1 0
	 }
}
ROOT tt
{
	 OFFSET 0 0 0
	 CHANNELS 3 XPosition YPosition Z Position
	 EndSite
	 {
	 OFFSET 0 -1 0
	 }
}
ROOT tb
{
	 OFFSET 0 0 0
	 CHANNELS 3 XPosition YPosition Z Position
	 EndSite
	 {
	 OFFSET 0 -1 0
	 }
}
ROOT td
{
	 OFFSET 0 0 0
	 CHANNELS 3 XPosition YPosition Z Position
	 EndSite
	 {
	 OFFSET 0 -1 0
	 }
}
ROOT v
{
	 OFFSET 0 0 0
	 CHANNELS 3 XPosition YPosition Z Position
	 EndSite
	 {
	 OFFSET 0 -1 0
	 }
}
ROOT bn
{
	 OFFSET 0 0 0
	 CHANNELS 3 XPosition YPosition Z Position
	 EndSite
	 {
	 OFFSET 0 -1 0
	 }
}
MOTION
Frames: 29
Frame Time: 0.002
-0.008090978622436523	3.201000094413757E-4	0		0.5026754760742187	-2.623922119140625	0		-0.9702422485351563	0.08995221710205079	0		-0.7410527954101562	-2.690480224609375	0		1.0718681640625	-1.008536865234375	0		2.966677978515625	-0.33746340942382813	0		4.66153369140625	-0.2604188842773438	0		5.58915966796875	0.0973168716430664	0		-0.16996235656738282	5.91023583984375	0		
0.04538520050048828	-0.00118702495098114	0		0.58094580078125	-2.637696044921875	0		-0.9417418823242187	0.09072679901123047	0		-0.7067020874023437	-2.69577294921875	0		1.059455810546875	-0.9954168090820312	0		2.936047119140625	-0.34822216796875	0		4.65303466796875	-0.2584534912109375	0		5.58051171875	0.08325332641601563	0		-0.13521543884277343	5.91692431640625	0		
-0.038220436096191406	-0.0033167030811309815	0		0.5273310546875	-2.632146240234375	0		-0.9743671875	0.08611656188964843	0		-0.6994931030273438	-2.707793701171875	0		1.086730712890625	-1.0066979370117188	0		2.931526611328125	-0.3412446899414063	0		4.63839697265625	-0.2634320983886719	0		5.58584375	0.07404246520996094	0		-0.14970724487304687	5.90610595703125	0		
0.04616653442382813	-0.0011384780406951903	0		0.5545802612304688	-2.6344111328125	0		-0.9680540161132812	0.08111559295654297	0		-0.72123388671875	-2.708521240234375	0		1.049049072265625	-1.0073251342773437	0		2.958733154296875	-0.3555914306640625	0		4.6546572265625	-0.2727264709472656	0		5.581298828125	0.08292689514160156	0		-0.13403318786621093	5.91698486328125	0		
-0.03350977325439453	6.971889734268188E-4	0		0.50390185546875	-2.6238876953125	0		-1.0076483764648438	0.09058058929443359	0		-0.683031005859375	-2.70985546875	0		1.07331201171875	-1.0085790405273438	0		2.939193359375	-0.3394665832519531	0		4.6361708984375	-0.2516711883544922	0		5.57159130859375	0.08085977935791015	0		-0.1675865478515625	5.91036083984375	0		
0.04978076553344726	0.0028796548843383787	0		0.5829573974609376	-2.635682861328125	0		-0.97342333984375	0.08629646301269531	0		-0.7307683715820312	-2.700317138671875	0		1.0666123046875	-1.00152001953125	0		2.94328271484375	-0.355584228515625	0		4.6574150390625	-0.2530225372314453	0		5.58594921875	0.08954611206054687	0		-0.16710331726074218	5.911392578125	0		
-0.03302170944213867	7.51576006412506E-4	0		0.52812060546875	-2.6321162109375	0		-0.9341985473632812	0.0859588623046875	0		-0.7076115112304687	-2.697500244140625	0		1.0936865234375	-1.0128072509765624	0		2.948636474609375	-0.34171505737304686	0		4.6435693359375	-0.25901943969726565	0		5.5812685546875	0.09842337799072266	0		-0.16666871643066405	5.9114248046875	0		
0.04311923980712891	-0.004000511169433594	0		0.5531697387695312	-2.63636572265625	0		-0.9770482788085938	0.08245862579345703	0		-0.7366131591796875	-2.70615185546875	0		1.0708475341796875	-1.0115855102539062	0		2.959666015625	-0.35590753173828127	0		4.65474560546875	-0.25927349853515624	0		5.5782119140625	0.07428040313720703	0		-0.13221092224121095	5.917107421875	0		
-0.03268661880493164	8.03613007068634E-4	0		0.49927825927734376	-2.63080615234375	0		-1.0059049682617187	0.08181639862060547	0		-0.6876565551757813	-2.7156044921875	0		1.0709603271484376	-1.0115997314453125	0		2.93483447265625	-0.35273281860351563	0		4.6488134765625	-0.26635467529296875	0		5.56344677734375	0.08225772857666015	0		-0.16590867614746094	5.911486328125	0		
0.047410778045654293	-9.977139830589295E-4	0		0.5313349609375	-2.627131591796875	0		-1.0057900390625	0.08187567901611328	0		-0.7555150146484375	-2.70285546875	0		1.056015869140625	-1.0134603881835937	0		2.95375732421875	-0.3700107116699219	0		4.65296728515625	-0.2615407104492187	0		5.59253955078125	0.07978113555908203	0		-0.16460443115234374	5.9095048828125	0		
-0.029470970153808593	0.003819483995437622	0		0.5313131103515625	-2.627129150390625	0		-0.9336664428710938	0.08618770599365234	0		-0.6836262817382812	-2.7115517578125	0		1.07410302734375	-1.0086633911132812	0		2.936159423828125	-0.33691070556640623	0		4.63712451171875	-0.25252130126953126	0		5.592615234375	0.07960150146484375	0		-0.13025862121582032	5.91518017578125	0		
0.047512954711914065	-9.592040181159973E-4	0		0.52617578125	-2.63407568359375	0		-1.0156709594726563	0.08309381103515626	0		-0.7346187133789063	-2.703977294921875	0		1.073961181640625	-1.0216810302734376	0		2.939937744140625	-0.36003631591796875	0		4.6550712890625	-0.2598543701171875	0		5.5785859375	0.07356658172607422	0		-0.16505624389648438	5.91156884765625	0		
-0.0324921875	8.915330171585082E-4	0		0.5530391845703125	-2.636357666015625	0		-0.9386920776367188	0.08234554290771484	0		-0.7107055053710938	-2.70118310546875	0		1.0739046630859375	-1.0217012329101562	0		2.93497802734375	-0.35307162475585935	0		4.64404296875	-0.25988818359375	0		5.57856884765625	0.07338498687744141	0		-0.17898870849609375	5.89973974609375	0		
-0.009611888885498047	-0.0033319759368896484	0		0.4989238586425781	-2.630796875	0		-1.0157615356445313	0.0832004623413086	0		-0.7260136108398437	-2.713984375	0		1.0498138427734376	-1.0194727783203126	0		2.955803955078125	-0.3613797607421875	0		4.63990478515625	-0.264995849609375	0		5.57849462890625	0.07320187377929688	0		-0.13067974853515624	5.9162587890625	0		
-0.032707794189453125	9.224179983139038E-4	0		0.529711181640625	-2.629127197265625	0		-0.9669108276367188	0.08173477172851562	0		-0.686240234375	-2.713365966796875	0		1.052670166015625	-1.0165286865234375	0		2.92880078125	-0.3471886901855469	0		4.64179833984375	-0.2611681823730469	0		5.58734716796875	0.07192317199707031	0		-0.1646708984375	5.9106337890625	0		
-0.005912094116210937	6.487370133399964E-4	0		0.529416748046875	-2.629135986328125	0		-1.0120556640625	0.08725177001953124	0		-0.7354401245117187	-2.70381689453125	0		1.0764200439453124	-1.0178085327148438	0		2.944374267578125	-0.3674485778808594	0		4.64765966796875	-0.25438389587402344	0		5.58306298828125	0.06378067779541016	0		-0.13060650634765625	5.91629052734375	0		
-0.010217372894287109	-0.003302340030670166	0		0.5789550170898438	-2.63967578125	0		-0.9393623046875	0.08252141571044921	0		-0.690935791015625	-2.71726025390625	0		1.073079833984375	-1.0218071899414063	0		2.9483623046875	-0.3425867919921875	0		4.63639892578125	-0.2534205474853516	0		5.57299267578125	0.08170048522949219	0		-0.12967788696289062	5.91529052734375	0		
-0.006492115020751953	6.582350134849549E-4	0		0.5246055908203126	-2.6341201171875	0		-0.9776741943359375	0.08295867919921875	0		-0.7141941528320312	-2.7029912109375	0		1.0607293701171876	-1.0217131958007812	0		2.93884375	-0.3605865478515625	0		4.6429990234375	-0.260647216796875	0		5.5775830078125	0.07246366119384766	0		-0.16483645629882812	5.9116689453125	0		
0.04210068130493164	-0.0038626420497894286	0		0.5511339721679688	-2.6364248046875	0		-0.9720869140625	0.07792716217041015	0		-0.727761474609375	-2.713828857421875	0		1.046313232421875	-1.0235994262695312	0		2.933544677734375	-0.35363092041015626	0		4.64262841796875	-0.26080059814453127	0		5.58212744140625	0.06322681045532226	0		-0.16402471923828124	5.90966357421875	0		
-0.031219999313354493	0.003911509990692139	0		0.49974822998046875	-2.62690185546875	0		-1.0074390869140626	0.08232896423339844	0		-0.6862190551757813	-2.71125634765625	0		1.0808681640625	-1.02500927734375	0		2.948908935546875	-0.37489804077148436	0		4.6352958984375	-0.2538792724609375	0		5.56681640625	0.07120301055908203	0		-0.16324363708496092	5.90865576171875	0		
0.04834416580200195	0.003052030086517334	0		0.5541773071289062	-2.63251025390625	0		-0.9688701171875	0.08193891143798829	0		-0.7257230224609375	-2.709822021484375	0		1.07143701171875	-1.021951904296875	0		2.9338623046875	-0.3378373413085938	0		4.6397705078125	-0.2620831909179687	0		5.58538623046875	0.07081947326660157	0		-0.1483717498779297	5.9194951171875	0		
-0.03514316177368164	9.350640177726746E-4	0		0.522617431640625	-2.63420068359375	0		-0.9793162841796875	0.08306951904296875	0		-0.6933425903320313	-2.71715966796875	0		1.0648818359375	-1.0279259033203125	0		2.93714501953125	-0.3609744873046875	0		4.64537744140625	-0.2552954711914063	0		5.58492822265625	0.07064315032958984	0		-0.13168455505371093	5.91631103515625	0		
-0.008630873680114746	6.377210021018982E-4	0		0.5469993896484375	-2.639492431640625	0		-0.9848428344726563	0.07914411163330078	0		-0.69592919921875	-2.7191259765625	0		1.06436572265625	-1.02796484375	0		2.93172412109375	-0.354014404296875	0		4.6408193359375	-0.26139508056640626	0		5.57055224609375	0.08062286376953125	0		-0.13100950622558594	5.91529638671875	0		
-0.04018014144897461	-0.0030376861095428465	0		0.49450830078125	-2.630957275390625	0		-0.9743599853515625	0.07804235076904296	0		-0.6965117797851562	-2.719116943359375	0		1.070753662109375	-1.035079345703125	0		2.936130615234375	-0.36115863037109375	0		4.6333798828125	-0.2544576263427734	0		5.57985205078125	0.06235290908813477	0		-0.16640695190429688	5.91066748046875	0		
0.04332608032226563	-9.579910039901734E-4	0		0.5229071655273437	-2.63229638671875	0		-1.0098339233398437	0.08243241119384766	0		-0.7659905395507812	-2.708366943359375	0		1.05229345703125	-1.0269256591796876	0		2.941740234375	-0.3483125305175781	0		4.6328525390625	-0.25458937072753907	0		5.57933251953125	0.06219692230224609	0		-0.16578762817382814	5.90964794921875	0		
-0.03718168258666992	8.91556978225708E-4	0		0.5223220825195313	-2.632324951171875	0		-0.943348388671875	0.08271405029296874	0		-0.6956682739257812	-2.7171337890625	0		1.0657669677734376	-1.025118408203125	0		2.935068359375	-0.36133197021484376	0		4.62641015625	-0.24664976501464844	0		5.57799462890625	0.07905958557128906	0		-0.1321090850830078	5.91526708984375	0		
0.04228892517089844	-9.952309727668763E-4	0		0.5467081909179687	-2.636626220703125	0		-0.9818582153320312	0.0831271209716797	0		-0.7431168823242188	-2.70562890625	0		1.06219921875	-1.028127197265625	0		2.945611328125	-0.355532470703125	0		4.6318037109375	-0.25483059692382815	0		5.57339599609375	0.07096736145019532	0		-0.16656207275390625	5.9096201171875	0		
-0.015234278678894044	-0.0033981990814208984	0		0.5441340942382813	-2.63963623046875	0		-0.9483961791992187	0.07875322723388672	0		-0.6628275756835937	-2.721517333984375	0		1.059643310546875	-1.032146484375	0		2.93404638671875	-0.36148785400390626	0		4.625392578125	-0.24687162780761718	0		5.5729033203125	0.07084456634521484	0		3.6702901124954226E-4	5.937783203125	0		
-0.011655757904052735	5.335050225257873E-4	0		0.4896981201171875	-2.63308154296875	0		-1.0118233642578125	0.08242857360839843	0		-0.7332529296875	-2.713770263671875	0		1.0681298828125	-1.0352850341796875	0		2.9245986328125	-0.35945892333984375	0		4.6308369140625	-0.25503092956542966	0		5.568341796875	0.06177993392944336	0		-0.2013883056640625	5.90394921875	0		
